<svg preserveAspectRatio="none" overflow="visible" style="display: block;" width="26.0447" height="45.4474" viewBox="0 0 26.0447 45.4474" fill="none" xmlns="http://www.w3.org/2000/svg">
<path id="Vector" d="M2.8038 31.7892C7.8038 21.7092 12.6438 11.5692 17.8038 1.57916L16.1138 1.83916C18.6921 3.75166 21.586 5.19691 24.6638 6.10916L23.9838 4.56916C21.9238 9.00916 19.8205 13.4225 17.6738 17.8092C15.6738 21.9025 13.6738 25.9892 11.6738 30.0692L10.2038 33.1792C9.8568 34.0697 9.43531 34.9294 8.94381 35.7492C8.13825 36.7031 7.26606 37.5986 6.33381 38.4292C4.51481 40.2356 2.5663 41.9067 0.503806 43.4292L2.18381 44.3292C2.18381 40.9992 2.26381 37.6592 2.10381 34.3292C2.09585 34.0639 1.98286 33.8127 1.7897 33.6308C1.59654 33.4489 1.33902 33.3512 1.07381 33.3592C0.808589 33.3671 0.557395 33.4801 0.375485 33.6733C0.193575 33.8664 0.0958496 34.1239 0.103806 34.3892C-0.0561939 37.7192 0.0138061 41.0492 0.0238061 44.3892C0.0327594 44.581 0.0913337 44.7672 0.193806 44.9297C0.296279 45.0921 0.439143 45.2252 0.608433 45.3159C0.777723 45.4065 0.967648 45.4518 1.15964 45.4471C1.35164 45.4424 1.53914 45.388 1.70381 45.2892C3.67854 43.8673 5.54684 42.3031 7.2938 40.6092C8.1738 39.7192 9.04381 38.8192 9.92381 37.9192C10.9218 36.7519 11.7192 35.4273 12.2838 33.9992C15.2838 27.7892 18.3938 21.6092 21.3738 15.3692C22.9338 12.1292 24.3738 8.83916 25.9238 5.57916C25.998 5.43499 26.0392 5.27607 26.0442 5.11398C26.0493 4.9519 26.0181 4.79073 25.9529 4.64223C25.8878 4.49373 25.7903 4.36163 25.6676 4.25557C25.545 4.14951 25.4002 4.07216 25.2438 4.02916C22.4878 3.24956 19.8935 1.98292 17.5838 0.28916C17.4641 0.178614 17.3211 0.0963202 17.1654 0.0483329C17.0096 0.000345663 16.8451 -0.0121132 16.6839 0.011872C16.5228 0.0358573 16.369 0.0956764 16.234 0.186928C16.099 0.278181 15.9862 0.398543 15.9038 0.53916C10.4813 10.4033 5.61376 20.5624 1.32381 30.9692C0.923805 31.9692 2.3238 32.7792 2.8038 31.7892V31.7892Z" fill="black"/>
</svg>
