<svg preserveAspectRatio="none" overflow="visible" style="display: block;" width="16.9466" height="24.698" viewBox="0 0 16.9466 24.698" fill="none" xmlns="http://www.w3.org/2000/svg">
<path id="Vector" d="M13.6064 1.1233C13.3184 1.24596 12.8757 1.20863 12.0064 1.1233C11.0251 1.0273 10.5184 0.909962 10.1397 0.856629C8.44906 0.627295 6.9664 1.48596 6.67306 1.65663C4.96106 2.64863 4.27306 4.2273 4.0064 4.85663C3.7504 5.46996 3.59573 6.07796 3.47306 6.98996C2.87573 11.454 4.13973 14.894 2.93973 15.5233C2.62506 15.6886 2.39573 15.534 2.13973 15.79C1.9104 16.0193 1.74506 16.4513 2.13973 18.4566C2.4544 20.0673 2.70506 20.5153 2.4064 20.8566C2.19306 21.102 1.72906 21.198 0.806397 21.39C0.31573 21.4913 0.0490632 21.5073 0.00639648 21.6566C-0.0736035 21.918 0.61973 22.3446 0.806397 22.4566C3.67573 24.206 7.73973 24.59 7.73973 24.59C8.6464 24.6753 11.9797 24.9526 14.6731 24.0566C15.9584 23.63 16.6251 23.102 16.8064 22.4566C16.8491 22.302 16.9077 22.0993 16.8064 21.9233C16.4917 21.39 15.2277 22.1366 13.8731 21.6566C12.5451 21.182 12.0277 19.8486 12.0064 19.79C11.9424 19.6193 11.5797 18.638 12.0064 17.6566C12.4651 16.5953 13.3664 16.6326 15.2064 14.99C15.7931 14.4673 16.0864 14.206 16.2731 13.9233C17.1317 12.6273 16.9931 11.0326 16.8064 9.1233C16.6997 8.0673 16.6517 8.33396 16.5397 7.25663C16.1824 3.78463 16.0011 1.99796 16.0064 0.856629C16.0064 0.691296 16.0117 0.221962 15.7397 0.0566288C15.5904 -0.0340379 15.4037 -0.00203785 15.2064 0.0566288C14.3691 0.312629 14.2357 0.851296 13.6064 1.1233Z" fill="white"/>
</svg>
