<svg preserveAspectRatio="none" overflow="visible" style="display: block;" width="24" height="24" viewBox="0 0 24 24" fill="none" xmlns="http://www.w3.org/2000/svg">
<g id="Add Member" opacity="0.5">
<g id="Group 8">
<path id="Union" d="M12.0864 6C14.3035 6.00014 16.1009 7.79748 16.101 10.0146C16.101 11.6366 15.1386 13.0326 13.7543 13.666C16.8393 13.9339 19.2599 16.5214 19.2602 19.6758C19.2602 21.1844 18.0373 22.408 16.5288 22.4082H7.64399C6.13543 22.4081 4.91255 21.1844 4.91255 19.6758C4.9128 16.5221 7.3324 13.9348 10.4165 13.666C9.03285 13.0323 8.07173 11.636 8.07173 10.0146C8.07185 7.79747 9.8692 6.00012 12.0864 6ZM10.9467 15.1416C8.4427 15.1418 6.41282 17.1718 6.41255 19.6758C6.41255 20.356 6.96386 20.9081 7.64399 20.9082H16.5288C17.2089 20.908 17.7602 20.3559 17.7602 19.6758C17.7599 17.1718 15.73 15.1419 13.226 15.1416H10.9467ZM12.0864 7.5C10.6976 7.50012 9.57185 8.6259 9.57173 10.0146C9.57173 11.4035 10.6976 12.5292 12.0864 12.5293C13.4752 12.5292 14.601 11.4035 14.601 10.0146C14.6009 8.62591 13.4751 7.50014 12.0864 7.5Z" fill="white"/>
<path id="Vector 38" d="M21.7043 18.9664V17.6944C21.7043 15.4343 19.8721 13.6022 17.612 13.6022H16.886" stroke="white" stroke-width="1.5" stroke-linecap="round"/>
<path id="Ellipse 23" d="M16.8859 13.6022C18.4829 13.6022 19.9693 12.1779 19.9693 10.5809C19.9693 8.98396 18.6747 7.68938 17.0778 7.68938" stroke="white" stroke-width="1.5" stroke-linecap="round"/>
</g>
<path id="Vector 329" d="M5 2V8M2 5H8" stroke="white" stroke-width="1.5" stroke-linecap="round" stroke-linejoin="round"/>
</g>
</svg>
